<?xml version="1.0" standalone="no"?>
<!DOCTYPE svg PUBLIC "-//W3C//DTD SVG 20010904//EN"
 "http://www.w3.org/TR/2001/REC-SVG-20010904/DTD/svg10.dtd">
<svg version="1.0" xmlns="http://www.w3.org/2000/svg"
 width="225.000000pt" height="225.000000pt" viewBox="0 0 225.000000 225.000000"
 preserveAspectRatio="xMidYMid meet">
<metadata>
Created by potrace 1.11, written by Peter Selinger 2001-2013
</metadata>
<g transform="translate(0.000000,225.000000) scale(0.100000,-0.100000)"
fill="#000000" stroke="none">
<path d="M1621 1903 c-22 -9 -52 -43 -56 -63 -5 -28 42 -94 118 -168 9 -9 17
-22 17 -29 0 -7 5 -13 11 -13 5 0 8 -4 4 -9 -3 -6 3 -14 12 -20 10 -6 14 -11
8 -11 -7 0 -7 -3 0 -8 10 -7 62 -99 65 -117 3 -12 10 -35 17 -55 8 -20 13 -41
17 -65 2 -11 4 -20 5 -20 7 0 17 -70 25 -160 4 -47 3 -48 -9 -25 -8 14 -12 37
-9 53 2 15 0 27 -6 27 -6 0 -8 5 -5 10 4 6 2 17 -4 24 -7 8 -11 18 -10 22 1 5
0 12 -1 17 -1 4 -4 10 -5 15 -1 4 -8 23 -16 42 -7 19 -12 38 -11 43 1 4 -2 7
-8 7 -5 0 -10 9 -10 20 0 11 -5 20 -11 20 -5 0 -8 4 -5 8 3 5 -3 18 -14 29
-10 12 -16 24 -13 27 4 3 1 6 -5 6 -7 0 -12 7 -12 15 0 9 -7 18 -15 21 -8 4
-15 12 -15 19 0 7 -7 15 -15 19 -8 3 -20 16 -26 30 -6 13 -19 26 -28 29 -9 2
-20 5 -26 7 -5 1 -23 16 -38 32 -40 42 -65 44 -103 7 -33 -32 -38 -70 -12 -92
8 -7 27 -31 42 -54 16 -24 32 -43 36 -43 4 0 11 -11 14 -25 4 -14 11 -25 17
-25 6 0 7 -4 4 -10 -3 -5 -1 -10 5 -10 6 0 8 -4 5 -10 -3 -5 -1 -10 4 -10 6 0
10 -3 9 -7 -1 -5 3 -18 10 -30 7 -13 10 -23 6 -23 -3 0 0 -7 7 -17 8 -9 13
-18 12 -20 -2 -1 -3 -4 -2 -5 21 -70 33 -285 16 -305 -5 -7 -6 -20 -3 -29 4
-9 1 -23 -5 -30 -6 -7 -8 -18 -5 -23 4 -5 2 -12 -3 -15 -15 -10 -24 13 -11 29
6 8 9 23 5 34 -3 10 -2 22 3 25 9 5 7 82 -4 136 -3 19 -7 45 -8 58 0 12 -5 22
-9 22 -5 0 -6 4 -2 9 3 5 1 12 -5 16 -6 4 -8 10 -5 15 3 5 1 11 -5 15 -6 4 -8
11 -5 16 4 5 1 9 -5 9 -6 0 -9 4 -6 9 4 5 1 11 -4 13 -6 2 -12 12 -14 21 -1
10 -9 23 -17 28 -8 5 -9 9 -4 9 6 0 3 5 -5 10 -8 5 -15 13 -15 18 0 12 -31 42
-44 42 -6 0 -11 4 -11 10 0 5 -7 7 -15 4 -9 -4 -15 0 -15 8 0 8 -9 23 -20 33
-11 10 -20 15 -20 11 0 -4 -8 -2 -18 3 -13 7 -23 6 -30 -1 -7 -7 -12 -9 -12
-5 0 4 -10 -3 -21 -14 -17 -17 -20 -29 -16 -62 3 -23 13 -47 22 -53 9 -7 15
-15 13 -18 -2 -3 5 -14 14 -25 9 -11 14 -22 11 -25 -4 -3 0 -6 7 -6 7 0 11 -3
7 -6 -3 -4 0 -19 8 -35 9 -16 15 -32 14 -36 -1 -4 0 -10 1 -13 16 -40 16 -169
0 -210 -1 -3 -3 -9 -5 -15 -1 -5 -3 -13 -5 -17 -1 -5 -3 -11 -4 -15 -1 -5 -6
-17 -11 -28 -6 -11 -10 -30 -10 -42 1 -24 53 -86 66 -78 4 3 18 -8 32 -24 14
-17 28 -27 31 -24 3 4 6 1 6 -5 0 -21 45 -3 72 30 15 17 31 29 34 25 4 -4 2
-7 -5 -7 -7 0 -9 -4 -6 -10 3 -5 1 -10 -5 -10 -6 0 -9 -4 -6 -9 4 -5 2 -11 -3
-13 -26 -9 -2 -98 26 -98 7 0 13 -4 13 -10 0 -5 10 -10 22 -10 12 0 18 -3 15
-7 -4 -3 10 -17 30 -31 29 -20 40 -23 54 -14 15 9 17 8 14 -6 -3 -21 34 -76
55 -80 8 -1 24 -13 36 -26 40 -45 62 -50 100 -24 18 13 34 29 34 36 0 6 5 12
11 12 5 0 7 5 4 10 -3 6 -1 10 5 10 6 0 8 5 5 10 -3 6 -2 10 3 10 10 0 36 58
33 73 0 4 4 7 9 7 5 0 9 3 9 8 -1 4 0 10 1 15 1 4 4 12 5 17 1 6 4 12 5 15 1
3 4 10 5 15 1 6 4 12 5 15 1 3 4 10 5 15 1 6 3 11 5 13 1 1 3 10 6 20 2 9 6
25 8 35 3 9 5 17 7 17 1 0 3 11 5 25 1 14 6 43 9 65 10 61 6 340 -5 340 -1 0
-4 11 -6 25 -6 36 -12 64 -14 70 -1 3 -3 10 -4 15 0 6 -6 24 -13 40 -24 62
-26 70 -25 78 1 4 -3 7 -10 7 -6 0 -9 3 -5 6 7 7 -38 101 -59 122 -8 7 -14 20
-14 28 0 8 -4 14 -10 14 -5 0 -10 7 -10 15 0 8 -4 15 -10 15 -5 0 -10 7 -10
15 0 8 -9 19 -20 25 -11 6 -19 14 -17 18 3 11 -111 123 -121 119 -5 -1 -20 10
-34 25 -14 15 -28 25 -31 21 -4 -3 -7 -1 -7 5 0 12 -15 14 -39 5z m245 -848
c0 -30 -4 -55 -8 -55 -9 0 -11 71 -2 94 10 25 11 20 10 -39z m-15 -132 c-12
-20 -14 -14 -5 12 4 9 9 14 11 11 3 -2 0 -13 -6 -23z m-251 -37 c0 -3 -4 -8
-10 -11 -5 -3 -10 -1 -10 4 0 6 5 11 10 11 6 0 10 -2 10 -4z m-20 -46 c-6 -11
-16 -20 -23 -20 -7 0 -6 4 3 10 8 5 11 10 7 10 -12 0 2 20 14 20 6 0 6 -8 -1
-20z"/>
<path d="M1033 1837 c-10 -6 -27 -22 -38 -36 -11 -14 -42 -49 -70 -77 -27 -29
-75 -80 -105 -113 -30 -34 -78 -85 -105 -114 -28 -29 -57 -62 -65 -74 -11 -17
-28 -24 -65 -28 -27 -3 -68 -7 -90 -10 -22 -3 -60 -7 -85 -10 -139 -15 -192
-26 -216 -44 -19 -15 -22 -25 -18 -87 1 -38 6 -85 9 -104 3 -19 7 -55 8 -80 1
-25 5 -50 9 -56 4 -5 7 -28 7 -50 1 -37 3 -54 15 -152 6 -48 45 -96 70 -86 9
3 16 1 16 -4 0 -6 10 -21 23 -34 17 -17 32 -22 62 -21 55 3 132 11 180 18 22
3 61 5 88 5 26 0 47 4 47 9 0 6 17 9 38 6 45 -4 72 -14 72 -26 0 -5 6 -9 13
-9 7 0 22 -8 33 -17 10 -10 31 -24 47 -32 15 -8 27 -18 27 -23 0 -4 5 -8 11
-8 10 0 26 -11 85 -60 7 -5 15 -6 18 -3 3 4 6 2 6 -4 0 -5 16 -18 35 -29 19
-10 35 -21 35 -25 0 -4 14 -12 30 -19 17 -7 30 -16 30 -21 0 -5 7 -9 15 -9 8
0 15 -4 15 -10 0 -5 7 -10 15 -10 8 0 15 -4 15 -9 0 -5 11 -11 25 -13 27 -6
88 20 79 33 -3 5 -2 9 3 9 8 0 7 69 -2 130 -3 19 -8 58 -10 85 -3 28 -8 68
-10 90 -3 22 -7 60 -9 85 -2 25 -5 47 -6 50 -2 3 -4 16 -6 30 -6 59 -15 138
-20 180 -3 25 -7 63 -9 85 -1 22 -4 40 -5 40 -2 0 -4 14 -6 30 -2 17 -5 53 -8
80 -3 28 -8 68 -11 90 -3 22 -8 58 -10 80 -15 141 -24 214 -29 240 -3 11 -5
23 -5 27 -2 16 -51 60 -63 56 -7 -3 -22 8 -34 23 -11 16 -24 26 -27 22 -4 -3
-7 -2 -7 4 0 12 -23 13 -47 0z"/>
</g>
</svg>
